<svg version="1.1" xmlns="http://www.w3.org/2000/svg" xmlns:xlink="http://www.w3.org/1999/xlink" width="32.000000pt" height="32.000000pt" viewBox="0,0,256,256"><g fill="#2a83f7" fill-rule="nonzero" stroke="none" stroke-width="1" stroke-linecap="butt" stroke-linejoin="miter" stroke-miterlimit="10" stroke-dasharray="" stroke-dashoffset="0" font-family="none" font-weight="none" font-size="none" text-anchor="none" style="mix-blend-mode: normal"><g transform="translate(3.86904,0.49806) scale(8,8)"><g transform="translate(0,32) scale(0.1,-0.1)"><path d="M67,283c-11,-10 -8,-123 3,-123c6,0 10,27 10,60v60h48c27,0 57,-7 70,-16c24,-17 29,-53 10,-73c-11,-10 -9,-16 10,-28c28,-20 30,-73 3,-97c-25,-22 -92,-32 -120,-17c-26,14 -29,66 -4,93c17,19 18,18 28,-19c8,-28 16,-38 30,-38c15,0 20,7 20,29c0,16 -6,30 -13,32c-7,1 -8,0 -2,-3c16,-8 12,-53 -5,-53c-21,0 -20,78 1,101c18,20 12,53 -8,47c-6,-2 -16,-18 -22,-36c-6,-17 -21,-39 -33,-47c-32,-22 -32,-87 -1,-109c39,-28 128,-13 148,24c17,31 12,79 -9,92c-15,9 -17,16 -9,34c15,32 3,69 -27,82c-28,13 -117,16 -128,5zM153,205c-7,-21 -13,-19 -13,6c0,11 4,18 10,14c5,-3 7,-12 3,-20z"></path></g></g></g></svg>